<svg xmlns="http://www.w3.org/2000/svg" width="505" height="410" viewBox="0 0 505 820" id="figure" class={value}>
    <rect x="1.5" y="15" width="600" height="300" fill="none" stroke="#fff" strokeWidth="6" transform="skewX(-30)">
        <animate class="animate" attributeName="opacity" from="0" to="1" dur="1s" begin="0s" fill="freeze"
            repeatCount="1" restart="whenNotActive" />
    </rect>
    <g>
        <line x1="29" y2="59" transform="translate(270 -5)" fill="none" stroke="#ff7f11" strokeWidth="5"></line>
        <line x1="28" y2="58" transform="translate(250 -5)" fill="none" stroke="#ff7f11" strokeWidth="5"></line>

        <line x1="29" y2="59" transform="translate(170 295)" fill="none" stroke="#ff7f11" strokeWidth="5"></line>
        <line x1="28" y2="58" transform="translate(150 295)" fill="none" stroke="#ff7f11" strokeWidth="5"></line>

        <line x1="80" y2="5" transform="translate(-120 150)" fill="none" stroke="#01d5fe" strokeWidth="5"></line>

        <line x1="80" y2="5" transform="translate(480 150)" fill="none" stroke="#01d5fe" strokeWidth="5"></line>

        <g>
            <path d="M0,19.658s23.243,3.773,38.523-1.141S61.122,0,61.122,0" transform="translate(-23 18)" fill="none"
                stroke="#da8dfd" strokeWidth="4"></path>
            <line x1="20" y2="-20" transform="translate(10 45)" fill="none" stroke="#da8dfd" strokeWidth="3"></line>
        </g>
        <g>
            <path d="M0,0S17.057.4,24.057,9.152,28,35,28,35" transform="translate(-160 280)" fill="none"
                stroke="#55fe01" strokeWidth="4"></path>
            <line x1="20" y2="-20" transform="translate(395 300)" fill="none" stroke="#da8dfd" strokeWidth="3"></line>
        </g>

        <g>
            <path d="M28.664,35s-17.057-.4-24.057-9.152S.664,0,.664,0" transform="translate(540 20)" fill="none"
                stroke="#55fe01" strokeWidth="4"></path>
            <line x1="-30" y2="-25" transform="translate(555 50)" fill="none" stroke="#55fe01" strokeWidth="3"></line>
            <line x1="-30" y2="-25" transform="translate(565 55)" fill="none" stroke="#55fe01" strokeWidth="3"></line>
        </g>
        <g>
            <path d="M61.122,1.384S37.879-2.389,22.6,2.525,0,21.042,0,21.042" transform="translate(380 287)" fill="none"
                stroke="#da8dfd" strokeWidth="4"></path>
            <line x1="-30" y2="-25" transform="translate(-123 295)" fill="none" stroke="#55fe01" strokeWidth="3"></line>
            <line x1="-30" y2="-25" transform="translate(-120 308)" fill="none" stroke="#55fe01" strokeWidth="3"></line>
        </g>
        <animate class="animate" attributeName="opacity" from="0" to="0" dur="1s" begin="0s" fill="freeze"
            repeatCount="1" restart="whenNotActive" />
        <animate class="animate" attributeName="opacity" from="0" to="1" dur="0.5s" begin="1s" fill="freeze"
            repeatCount="1" restart="whenNotActive" />
    </g>
</svg>